<svg width="600" height="600" viewBox="0 0 600 600" fill="none" xmlns="http://www.w3.org/2000/svg">
<rect width="600" height="600" rx="50" fill="#222831"/>
<path fill-rule="evenodd" clip-rule="evenodd" d="M300 520C421.503 520 520 421.503 520 300C520 178.497 421.503 80 300 80C178.497 80 80 178.497 80 300C80 421.503 178.497 520 300 520ZM293.614 377.349C260.543 376.412 229.558 368.315 202.654 357.685C207.76 384.753 216.486 409.52 228.406 430.182C246.255 461.121 269.208 479.256 293.614 481.958V377.349ZM189.344 352.088C157.135 337.726 131.994 320.567 117.956 309.976C120.363 354.927 139.003 396.849 171.077 428.923C193.393 451.24 220.48 467.048 250.034 475.42C238.187 465.78 227.319 452.623 217.879 436.258C204.139 412.443 194.431 383.56 189.344 352.088ZM162.482 437.518C125.75 400.785 105.52 351.947 105.52 300V300C105.52 248.052 125.75 199.214 162.481 162.482C199.214 125.75 248.052 105.52 300 105.52C351.947 105.52 400.785 125.75 437.517 162.481C474.25 199.214 494.48 248.052 494.48 300L494.48 300C494.48 351.947 474.251 400.785 437.519 437.518C400.787 474.25 351.948 494.48 300.001 494.48C248.053 494.48 199.215 474.25 162.482 437.518ZM117.951 290.028C131.987 279.437 157.13 262.276 189.342 247.913C194.43 216.441 204.139 187.557 217.879 163.742C227.319 147.377 238.187 134.22 250.034 124.58C220.48 132.951 193.395 148.76 171.077 171.077C139.001 203.152 120.357 245.075 117.951 290.028ZM235.463 231.419C253.75 226.508 273.288 223.227 293.614 222.651V118.04C269.208 120.743 246.255 138.878 228.406 169.816C216.485 190.478 207.758 215.246 202.651 242.316C202.714 242.291 202.777 242.267 202.839 242.242C200.777 250.256 199.68 258.659 199.68 267.317C199.68 322.722 244.595 367.637 300 367.637C355.405 367.637 400.32 322.722 400.32 267.317C400.32 258.659 399.223 250.256 397.161 242.242C397.223 242.267 397.286 242.291 397.348 242.316C392.241 215.247 383.514 190.479 371.593 169.816C353.55 138.541 330.29 120.345 305.587 117.955V222.629C326.2 223.141 346.01 226.443 364.537 231.419C370.46 242.045 373.836 254.287 373.836 267.317C373.836 308.095 340.778 341.152 300 341.152C259.222 341.152 226.165 308.095 226.165 267.317C226.165 254.287 229.54 242.045 235.463 231.419ZM428.924 428.923C460.998 396.849 479.638 354.926 482.045 309.975C468.008 320.566 442.866 337.726 410.657 352.088C405.57 383.56 395.862 412.443 382.122 436.258C372.682 452.623 361.814 465.78 349.967 475.42C379.52 467.049 406.607 451.24 428.924 428.923ZM397.347 357.685C370.225 368.4 338.958 376.542 305.587 377.371V482.045C330.29 479.655 353.55 461.459 371.594 430.184C383.514 409.521 392.24 384.754 397.347 357.685ZM482.049 290.028C468.013 279.437 442.871 262.277 410.66 247.914C405.572 216.441 395.863 187.558 382.123 163.741C372.682 147.377 361.814 134.22 349.968 124.579C379.52 132.951 406.607 148.76 428.924 171.077C460.999 203.152 479.643 245.076 482.049 290.028ZM358.587 260.094C358.587 270.732 349.963 279.355 339.326 279.355C328.688 279.355 320.064 270.732 320.064 260.094C320.064 249.456 328.688 240.832 339.326 240.832C349.963 240.832 358.587 249.456 358.587 260.094Z" fill="#00ADB5"/>
</svg>
