<svg width="500" height="500" viewBox="0 0 500 500" fill="none" xmlns="http://www.w3.org/2000/svg">
<path fill-rule="evenodd" clip-rule="evenodd" d="M250 500C388.071 500 500 388.071 500 250C500 111.929 388.071 0 250 0C111.929 0 0 111.929 0 250C0 388.071 111.929 500 250 500ZM242.743 337.897C205.163 336.832 169.952 327.63 139.379 315.551C145.182 346.311 155.098 374.454 168.644 397.934C188.926 433.092 215.01 453.7 242.743 456.77V337.897ZM124.255 309.191C87.6533 292.871 59.0837 273.372 43.1314 261.336C45.8666 312.417 67.0493 360.056 103.497 396.504C128.856 421.864 159.636 439.828 193.22 449.341C179.758 438.386 167.408 423.435 156.68 404.839C141.067 377.776 130.036 344.955 124.255 309.191ZM93.7298 406.27C51.9885 364.529 29.0002 309.031 29.0001 250V250C29.0001 190.968 51.9884 135.47 93.729 93.7298C135.47 51.9884 190.968 29 250 29C309.03 29 364.529 51.9884 406.27 93.729C448.012 135.47 471 190.968 471 250V250C471 309.031 448.013 364.529 406.271 406.27C364.531 448.012 309.032 471 250.001 471C190.969 471 135.471 448.012 93.7298 406.27ZM43.1258 238.668C59.0765 226.633 87.6475 207.132 124.252 190.81C130.034 155.046 141.067 122.224 156.68 95.1611C167.408 76.5652 179.758 61.614 193.22 50.6589C159.637 60.1714 128.858 78.1363 103.497 103.496C67.0466 139.945 45.8607 187.585 43.1258 238.668ZM176.663 172.067C197.443 166.486 219.646 162.758 242.743 162.103V43.2278C215.01 46.2985 188.926 66.9068 168.644 102.063C155.097 125.544 145.18 153.689 139.376 184.45C139.448 184.422 139.519 184.394 139.59 184.366C137.247 193.473 136 203.021 136 212.86C136 275.82 187.04 326.86 250 326.86C312.961 326.86 364 275.82 364 212.86C364 203.021 362.754 193.473 360.41 184.366C360.481 184.394 360.552 184.422 360.623 184.45C354.819 153.689 344.902 125.545 331.356 102.064C310.852 66.5243 284.421 45.847 256.349 43.1302V162.079C279.773 162.66 302.284 166.413 323.337 172.067C330.069 184.142 333.904 198.053 333.904 212.86C333.904 259.199 296.339 296.764 250 296.764C203.661 296.764 166.096 259.199 166.096 212.86C166.096 198.053 169.931 184.143 176.663 172.067ZM396.504 396.504C432.952 360.056 454.134 312.416 456.87 261.335C440.918 273.371 412.348 292.87 375.747 309.191C369.966 344.954 358.934 377.776 343.321 404.839C332.593 423.436 320.244 438.387 306.781 449.341C340.364 439.829 371.144 421.864 396.504 396.504ZM360.621 315.551C329.802 327.727 294.27 336.98 256.349 337.921V456.87C284.421 454.153 310.852 433.476 331.357 397.936C344.903 374.456 354.819 346.311 360.621 315.551ZM456.875 238.668C440.924 226.634 412.354 207.133 375.75 190.811C369.969 155.047 358.935 122.225 343.322 95.1603C332.594 76.5643 320.244 61.6131 306.782 50.658C340.363 60.1714 371.144 78.1363 396.504 103.496C432.953 139.945 454.14 187.587 456.875 238.668ZM316.576 204.652C316.576 216.74 306.777 226.54 294.688 226.54C282.6 226.54 272.8 216.74 272.8 204.652C272.8 192.564 282.6 182.764 294.688 182.764C306.777 182.764 316.576 192.564 316.576 204.652Z" fill="#00ADB5"/>
</svg>
